<?xml version="1.0" encoding="UTF-8"?>
<svg xmlns="http://www.w3.org/2000/svg" xmlns:xlink="http://www.w3.org/1999/xlink" width="16px" height="16px" viewBox="0 0 16 16" version="1.1">
<g id="surface1">
<path style=" stroke:none;fill-rule:nonzero;fill:rgb(0%,0%,0%);fill-opacity:1;" d="M 7.910156 0.582031 C 3.800781 0.582031 0.460938 3.917969 0.460938 8.027344 C 0.460938 12.136719 3.800781 15.476562 7.910156 15.476562 C 12.019531 15.476562 15.359375 12.136719 15.359375 8.027344 C 15.359375 3.917969 12.019531 0.578125 7.910156 0.578125 Z M 7.160156 2.207031 C 8.429688 2.207031 9.597656 2.609375 10.554688 3.296875 C 10.378906 3.277344 10.199219 3.265625 10.019531 3.265625 C 7.390625 3.265625 5.257812 5.398438 5.257812 8.027344 C 5.257812 10.65625 7.390625 12.789062 10.019531 12.789062 C 10.199219 12.789062 10.378906 12.78125 10.554688 12.761719 C 9.597656 13.445312 8.429688 13.847656 7.160156 13.847656 C 3.945312 13.847656 1.339844 11.246094 1.339844 8.027344 C 1.339844 4.808594 3.945312 2.207031 7.160156 2.207031 Z M 7.160156 2.207031 "/>
</g>
</svg>
