<?xml version="1.0" encoding="UTF-8"?>
<svg xmlns="http://www.w3.org/2000/svg" xmlns:xlink="http://www.w3.org/1999/xlink" width="16px" height="16px" viewBox="0 0 16 16" version="1.1">
<g id="surface1">
<path style=" stroke:none;fill-rule:nonzero;fill:rgb(0%,0%,0%);fill-opacity:1;" d="M 16 9.039062 L 16 6.574219 L 13.777344 6.574219 C 13.621094 5.84375 13.332031 5.164062 12.933594 4.558594 L 14.421875 3.070312 L 12.679688 1.332031 L 11.175781 2.835938 C 10.546875 2.433594 9.835938 2.148438 9.074219 2.011719 L 9.074219 0 L 6.609375 0 L 6.609375 2.085938 C 5.863281 2.269531 5.167969 2.597656 4.5625 3.035156 L 3.105469 1.578125 L 1.367188 3.320312 L 2.914062 4.867188 C 2.550781 5.492188 2.304688 6.1875 2.191406 6.925781 L 0 6.925781 L 0 9.390625 L 2.34375 9.390625 C 2.53125 10.070312 2.84375 10.703125 3.246094 11.261719 L 1.613281 12.894531 L 3.355469 14.632812 L 5.078125 12.910156 C 5.652344 13.242188 6.289062 13.480469 6.960938 13.601562 L 6.960938 16 L 9.425781 16 L 9.425781 13.527344 C 10.089844 13.363281 10.710938 13.089844 11.265625 12.722656 L 12.929688 14.386719 L 14.667969 12.644531 L 12.988281 10.964844 C 13.359375 10.382812 13.628906 9.734375 13.777344 9.039062 Z M 8.019531 10.882812 C 6.320312 10.882812 4.941406 9.503906 4.941406 7.804688 C 4.941406 6.109375 6.320312 4.730469 8.019531 4.730469 C 9.714844 4.730469 11.09375 6.109375 11.09375 7.804688 C 11.09375 9.503906 9.714844 10.882812 8.019531 10.882812 Z M 8.019531 10.882812 "/>
</g>
</svg>
